<svg xmlns="http://www.w3.org/2000/svg" width="97.748" height="113.153" viewBox="0 0 97.748 113.153">
    <defs>
        <style>
            .cls-1,.cls-2,.cls-4{fill:#d1ed7a;stroke:#2d2d2d;stroke-miterlimit:10;stroke-width:.4px}.cls-2,.cls-4{fill:#fff}.cls-4{stroke-linecap:round}
        </style>
    </defs>
    <g id="Group_77929" data-name="Group 77929" transform="translate(-69.396 -832.248)">
        <g id="Group_77928" data-name="Group 77928" transform="translate(69.582 832.462)">
            <g id="Group_77927" data-name="Group 77927">
                <g id="Group_77924" data-name="Group 77924">
                    <path id="Rectangle_2583-3" d="M83.111 837.6h52.076a12.694 12.694 0 0 1 12.693 12.693c.7 12.344 1.1 25.386 1.077 39.039-.023 12.795-.415 25.034-1.077 36.664a12.97 12.97 0 0 1-1.661 6.287 12.6 12.6 0 0 1-2.06 2.7 14.117 14.117 0 0 1-8.989 3.722H83.092a12.649 12.649 0 0 1-8.973-3.717 13.137 13.137 0 0 1-2.2-2.947 13.419 13.419 0 0 1-1.523-6.034c-.186-6.095-.279-9.141-.68-39.873-.063-4.76-.519-22.892.68-35.83a12.715 12.715 0 0 1 12.711-12.711z" class="cls-1" data-name="Rectangle 2583-3" transform="translate(-69.582 -825.965)"/>
                    <path id="Rectangle_2584-3" d="M78.216 839.544h57.024a5.917 5.917 0 0 1 5.913 5.916q.826 19.515.852 40.555 0 20.671-.852 39.891a6.025 6.025 0 0 1-1.732 4.184 5.87 5.87 0 0 1-4.182 1.732H78.216a5.916 5.916 0 0 1-5.916-5.916q-.809-20.025-.809-41.569.027-20.086.809-38.878a6.086 6.086 0 0 1 .757-2.9 5.982 5.982 0 0 1 .977-1.285 6.573 6.573 0 0 1 4.182-1.73z" class="cls-2" data-name="Rectangle 2584-3" transform="translate(-67.165 -823.493)"/>
                    <path id="Path_70894-2" d="M106.759 838.19a2.265 2.265 0 0 1-2.158-1.623 5.749 5.749 0 0 0-11.015 0 2.263 2.263 0 0 1-2.158 1.621c-1.9-.138-3.948-.215-6.12-.2-1.793 0-3.493.086-5.1.2a2.311 2.311 0 0 0-1.587.659 2.259 2.259 0 0 0-.662 1.587 38.3 38.3 0 0 0 0 10.082 1.364 1.364 0 0 0 .252.854 2.484 2.484 0 0 0 2 .558c6.07 0 12.124.757 18.194.743 6.53-.014 13.058-1.172 19.572-.743.317.02 1.491.12 2-.56a1.34 1.34 0 0 0 .249-.85 42.672 42.672 0 0 0 0-10.088 2.287 2.287 0 0 0-.657-1.587 2.251 2.251 0 0 0-1.587-.662c-1.784-.125-3.7-.2-5.723-.195-1.946.004-3.782.081-5.5.204z" class="cls-2" data-name="Path 70894-2" transform="translate(-59.391 -832.462)"/>
                    <circle id="Ellipse_13047" cx="11.593" cy="11.593" r="11.593" fill="#ffabaf" stroke="#2d2d2d" stroke-miterlimit="10" stroke-width="0.4px" data-name="Ellipse 13047" transform="translate(13.803 26.964)"/>
                    <path id="Path_144671" d="M90 851.8h-2.657a1 1 0 0 1-1-1v-2.656a1.7 1.7 0 0 0-1.328-1.7 1.642 1.642 0 0 0-1.931 1.6v2.756a1 1 0 0 1-1 1h-2.667a1.7 1.7 0 0 0-1.7 1.328 1.635 1.635 0 0 0 1.31 1.9 1.6 1.6 0 0 0 .292.027h2.756a1.008 1.008 0 0 1 1 1.006v2.656a1.7 1.7 0 0 0 1.328 1.7 1.631 1.631 0 0 0 1.9-1.31 1.56 1.56 0 0 0 .027-.292v-2.754a1.007 1.007 0 0 1 1-1.006h2.77a1.632 1.632 0 0 0 1.63-1.639 1.6 1.6 0 0 0-.027-.292A1.7 1.7 0 0 0 90 851.8z" class="cls-2" data-name="Path 144671" transform="translate(-59.314 -814.789)"/>
                    <path id="Path_144672-2" d="M75.672 862.408q13.188.456 27.2.442 12.807-.021 24.932-.442" class="cls-4" data-name="Path 144672-2" transform="translate(-61.87 -794.534)"/>
                    <path id="Path_144673-2" d="M75.672 867.085q13.188.455 27.2.442 12.807-.021 24.932-.442" class="cls-4" data-name="Path 144673-2" transform="translate(-61.87 -788.61)"/>
                    <path id="Path_144674-2" d="M75.672 871.539q13.188.455 27.2.442 12.807-.02 24.932-.442" class="cls-4" data-name="Path 144674-2" transform="translate(-61.87 -782.969)"/>
                </g>
                <g id="Group_77925" data-name="Group 77925" transform="translate(73.846 29.133)">
                    <path id="Path_144777" d="M107.3 918.508c-1.188 3.525-2.917 5.784-3.885 5.564s-1.546-3.01-1.079-6.711l16.315-70.671a2.647 2.647 0 0 1 4.966 1.147z" class="cls-2" data-name="Path 144777" transform="translate(-102.151 -845.316)"/>
                    <path id="Path_144778" fill="#c7dcff" stroke="#2d2d2d" stroke-miterlimit="10" stroke-width="0.4px" d="M112.112 870.386a6.147 6.147 0 0 0-4.966-1.145l5.2-22.518a2.633 2.633 0 0 1 4.964 1.147z" data-name="Path 144778" transform="translate(-95.852 -845.315)"/>
                    <path id="Path_144779" d="M102.188 878.071l4.316 1a7.415 7.415 0 0 1-1.138 2.029c-.562.712-1.292 1.634-1.938 1.489-.721-.163-.986-1.578-1.138-2.473a7.905 7.905 0 0 1-.102-2.045z" class="cls-1" data-name="Path 144779" transform="translate(-102.163 -803.829)"/>
                    <path id="Path_144780" fill="none" stroke="#2d2d2d" stroke-linecap="round" stroke-miterlimit="10" stroke-width="0.4px" d="M113.1 847.675a2.618 2.618 0 0 1 1.947.449c1.385 1.154.632 4.132.118 6.015a154.808 154.808 0 0 1-5.2 15.471" data-name="Path 144780" transform="translate(-92.277 -842.372)"/>
                </g>
            </g>
        </g>
    </g>
</svg>
