<svg xmlns="http://www.w3.org/2000/svg" width="88.787" height="113.01" viewBox="0 0 88.787 113.01"> <defs> <style>.cls-5{stroke:#2d2d2d;stroke-miterlimit:10;stroke-width:.4px;fill:#fff;stroke-linecap:round}</style> </defs> <g id="Group_77926" data-name="Group 77926" transform="translate(-149.324 -837.261)"> <path id="Rectangle_2583-2" fill="#d1ed7a" stroke="#2d2d2d" stroke-miterlimit="10" stroke-width="0.4px" d="M164.576 837.466h58a14.139 14.139 0 0 1 14.135 14.134c.783 13.748 1.224 28.272 1.2 43.479-.025 14.25-.462 27.881-1.2 40.833a14.473 14.473 0 0 1-1.85 7 14.1 14.1 0 0 1-2.295 3.009 15.728 15.728 0 0 1-10.011 4.145h-58a14.083 14.083 0 0 1-9.994-4.14 14.477 14.477 0 0 1-2.446-3.282 14.913 14.913 0 0 1-1.7-6.72c-.207-6.788-.31-10.181-.757-44.408-.071-5.3-.578-25.5.757-39.9a14.159 14.159 0 0 1 14.156-14.156z" data-name="Rectangle 2583-2"/> <path id="Rectangle_2584-2" fill="#fff" stroke="#2d2d2d" stroke-miterlimit="10" stroke-width="0.4px" d="M158.908 839.413h63.509A6.589 6.589 0 0 1 229 846q.916 21.735.949 45.168 0 23.022-.949 44.428a6.737 6.737 0 0 1-1.929 4.66 6.567 6.567 0 0 1-4.657 1.928h-63.506a6.587 6.587 0 0 1-6.589-6.588q-.9-22.3-.9-46.3.03-22.371.9-43.3a6.562 6.562 0 0 1 1.931-4.657 7.31 7.31 0 0 1 4.658-1.926z" data-name="Rectangle 2584-2" transform="translate(2.909 2.976)"/> <ellipse id="Ellipse_13048" cx="15.384" cy="15.385" fill="#ffabaf" stroke="#2d2d2d" stroke-miterlimit="10" stroke-width="0.4px" data-name="Ellipse 13048" rx="15.384" ry="15.385" transform="translate(178.208 856.648)"/> <path id="Path_144675" fill="#c7dcff" stroke="#2d2d2d" stroke-miterlimit="10" stroke-width="0.4px" d="M178.487 853.549h-3.526a1.333 1.333 0 0 1-1.333-1.333v-3.526a2.255 2.255 0 0 0-1.762-2.257 2.166 2.166 0 0 0-2.525 1.733 2.056 2.056 0 0 0-.037.392v3.655a1.335 1.335 0 0 1-1.335 1.335h-3.524a2.255 2.255 0 0 0-2.257 1.76 2.169 2.169 0 0 0 1.735 2.529 2.192 2.192 0 0 0 .39.035h3.655a1.334 1.334 0 0 1 1.332 1.328v3.528a2.253 2.253 0 0 0 1.76 2.256 2.165 2.165 0 0 0 2.527-1.735 2.38 2.38 0 0 0 .037-.39v-3.657a1.333 1.333 0 0 1 1.333-1.333h3.657a2.168 2.168 0 0 0 2.162-2.174 2.427 2.427 0 0 0-.037-.39 2.255 2.255 0 0 0-2.252-1.756z" data-name="Path 144675" transform="translate(22.127 16.439)"/> <path id="Path_144676" d="M155.6 862.277q14.684.508 30.292.492 14.26-.023 27.768-.492" class="cls-5" data-name="Path 144676" transform="translate(9.283 37.828)"/> <path id="Path_144677" d="M155.6 866.954q14.684.508 30.292.492 14.26-.023 27.768-.492" class="cls-5" data-name="Path 144677" transform="translate(9.283 44.957)"/> <path id="Path_144678" d="M155.6 871.408q14.684.508 30.292.492 14.26-.023 27.768-.492" class="cls-5" data-name="Path 144678" transform="translate(9.283 51.746)"/> </g></svg>