<svg xmlns="http://www.w3.org/2000/svg" width="84.982" height="100.131" viewBox="0 0 84.982 100.131">
  <g id="Group_87976" data-name="Group 87976" transform="translate(0.188 0.2)">
    <path id="Rectangle_2583" data-name="Rectangle 2583" d="M314.12,837.6h46.992a11.453,11.453,0,0,1,11.453,11.453h0c.634,11.139.992,22.907.971,35.228-.02,11.545-.374,22.59-.971,33.084a11.705,11.705,0,0,1-1.5,5.674,11.461,11.461,0,0,1-1.859,2.438,12.749,12.749,0,0,1-8.112,3.358H314.1a11.414,11.414,0,0,1-8.1-3.354,11.787,11.787,0,0,1-1.982-2.659,12.083,12.083,0,0,1-1.374-5.444c-.168-5.5-.252-8.249-.614-35.98-.057-4.3-.468-20.657.614-32.331a11.473,11.473,0,0,1,11.47-11.47Z" transform="translate(-301.912 -829.101)" fill="#fff" stroke="#2d2d2d" stroke-width="0.4"/>
    <path id="Rectangle_2583-2" data-name="Rectangle 2583" d="M309.5,844.9h7.113a1.587,1.587,0,0,1,1.734,1.372h0c.094,1.336.149,2.747.145,4.224,0,1.385-.055,2.708-.145,3.968a1.187,1.187,0,0,1-.227.679,1.524,1.524,0,0,1-.282.293,2.209,2.209,0,0,1-1.227.4h-7.113a1.985,1.985,0,0,1-1.225-.4,1.48,1.48,0,0,1-.3-.319,1.212,1.212,0,0,1-.207-.652c-.027-.659-.039-.988-.094-4.313a32.385,32.385,0,0,1,.094-3.876A1.587,1.587,0,0,1,309.5,844.9Z" transform="translate(-295.915 -821.46)" fill="#fff" stroke="#2d2d2d" stroke-linecap="round" stroke-width="0.4"/>
    <path id="Rectangle_2583-3" data-name="Rectangle 2583" d="M326.82,844.9h7.111a1.585,1.585,0,0,1,1.734,1.372h0c.1,1.336.149,2.747.147,4.224,0,1.385-.057,2.708-.147,3.968a1.186,1.186,0,0,1-.227.679,1.507,1.507,0,0,1-.28.293,2.221,2.221,0,0,1-1.229.4h-7.111a1.981,1.981,0,0,1-1.225-.4,1.43,1.43,0,0,1-.3-.319,1.213,1.213,0,0,1-.209-.652c-.025-.659-.037-.988-.092-4.313a32.268,32.268,0,0,1,.092-3.876,1.588,1.588,0,0,1,1.736-1.374Z" transform="translate(-277.808 -821.46)" fill="#fff" stroke="#2d2d2d" stroke-width="0.4"/>
    <path id="Rectangle_2583-4" data-name="Rectangle 2583" d="M309.5,854.1h7.113a1.587,1.587,0,0,1,1.734,1.374h0c.094,1.334.149,2.745.145,4.221,0,1.385-.055,2.71-.145,3.968a1.187,1.187,0,0,1-.227.679,1.416,1.416,0,0,1-.282.292,2.209,2.209,0,0,1-1.227.4h-7.113a1.972,1.972,0,0,1-1.225-.4,1.507,1.507,0,0,1-.3-.317,1.226,1.226,0,0,1-.207-.655c-.027-.659-.039-.988-.094-4.313a32.4,32.4,0,0,1,.094-3.876A1.587,1.587,0,0,1,309.5,854.1Z" transform="translate(-295.915 -811.847)" fill="#fff" stroke="#2d2d2d" stroke-width="0.4"/>
    <path id="Rectangle_2583-5" data-name="Rectangle 2583" d="M326.82,854.1h7.111a1.586,1.586,0,0,1,1.734,1.374h0c.1,1.334.149,2.745.147,4.221,0,1.385-.057,2.71-.147,3.968a1.186,1.186,0,0,1-.227.679,1.4,1.4,0,0,1-.28.292,2.221,2.221,0,0,1-1.229.4h-7.111a1.968,1.968,0,0,1-1.225-.4,1.455,1.455,0,0,1-.3-.317,1.227,1.227,0,0,1-.209-.655c-.025-.659-.037-.988-.092-4.313a32.279,32.279,0,0,1,.092-3.876,1.588,1.588,0,0,1,1.736-1.374Z" transform="translate(-277.808 -811.847)" fill="#fff" stroke="#2d2d2d" stroke-linecap="round" stroke-width="0.4"/>
    <path id="Rectangle_2583-6" data-name="Rectangle 2583" d="M309.5,863.9h7.113a1.587,1.587,0,0,1,1.734,1.372h0c.094,1.336.149,2.747.145,4.223,0,1.385-.055,2.71-.145,3.968a1.187,1.187,0,0,1-.227.679,1.412,1.412,0,0,1-.282.292,2.209,2.209,0,0,1-1.227.4h-7.113a1.984,1.984,0,0,1-1.225-.4,1.466,1.466,0,0,1-.3-.319,1.211,1.211,0,0,1-.207-.652c-.027-.659-.039-.988-.094-4.314a32.385,32.385,0,0,1,.094-3.876A1.587,1.587,0,0,1,309.5,863.9Z" transform="translate(-295.915 -801.6)" fill="#fff" stroke="#2d2d2d" stroke-width="0.4"/>
    <path id="Rectangle_2583-7" data-name="Rectangle 2583" d="M318.751,872.925h9.355a2.334,2.334,0,0,1,2.28,2.383h0c.127,2.317.2,4.763.194,7.326,0,2.4-.076,4.7-.194,6.882a2.522,2.522,0,0,1-.3,1.18,2.373,2.373,0,0,1-.37.507,2.474,2.474,0,0,1-1.614.7h-9.357a2.22,2.22,0,0,1-1.612-.7,2.475,2.475,0,0,1-.395-.552,2.612,2.612,0,0,1-.272-1.133c-.035-1.143-.051-1.716-.123-7.484-.012-.894-.094-4.3.123-6.725a2.334,2.334,0,0,1,2.283-2.385Z" transform="translate(-286.852 -792.17)" fill="#fff" stroke="#2d2d2d" stroke-width="0.4"/>
    <path id="Rectangle_2583-8" data-name="Rectangle 2583" d="M326.82,863.9h7.111a1.585,1.585,0,0,1,1.734,1.372h0c.1,1.336.149,2.747.147,4.223,0,1.385-.057,2.71-.147,3.968a1.186,1.186,0,0,1-.227.679,1.4,1.4,0,0,1-.28.292,2.221,2.221,0,0,1-1.229.4h-7.111a1.98,1.98,0,0,1-1.225-.4,1.417,1.417,0,0,1-.3-.319,1.212,1.212,0,0,1-.209-.652c-.025-.659-.037-.988-.092-4.314a32.268,32.268,0,0,1,.092-3.876,1.588,1.588,0,0,1,1.736-1.374Z" transform="translate(-277.808 -801.6)" fill="#fff" stroke="#2d2d2d" stroke-width="0.4"/>
    <path id="Union_2" data-name="Union 2" d="M321.876,850.452V848.4A1.875,1.875,0,0,0,320,846.521h-2.047a3.053,3.053,0,0,1,0-6.105h2.055a1.875,1.875,0,0,0,1.876-1.875h0v-2.047a3.053,3.053,0,0,1,6.105,0h0v2.06a1.877,1.877,0,0,0,1.878,1.876h2.045a3.052,3.052,0,1,1,0,6.1h-2.056a1.866,1.866,0,0,0-1.875,1.855v2.068a3.053,3.053,0,0,1-6.105,0h0Z" transform="translate(-288.335 -833.441)" fill="#ffabaf" stroke="#2d2d2d" stroke-width="0.4"/>
    <path id="Path_167026" data-name="Path 167026" d="M353.058,894.72a3.633,3.633,0,0,1-4.3,2.67c-4.481-.894-10.567-9.824-14.24-22.964l4.307-2.67C348.954,880.886,354.248,890.309,353.058,894.72Z" transform="translate(-268.644 -799.408)" fill="#d1ed7a" stroke="#2d2d2d" stroke-width="0.4"/>
    <path id="Path_167027" data-name="Path 167027" d="M346.323,857.737a23.822,23.822,0,1,0,23.82,23.82A23.822,23.822,0,0,0,346.323,857.737Zm0,38a14.182,14.182,0,1,1,14.183-14.183A14.181,14.181,0,0,1,346.323,895.74Z" transform="translate(-289.196 -823.392)" fill="#d1ed7a" stroke="#2d2d2d" stroke-linecap="round" stroke-width="0.4"/>
  </g>
</svg>
