<svg xmlns="http://www.w3.org/2000/svg" width="142.669" height="114.215" viewBox="0 0 142.669 114.215"> <defs> <style>.cls-1,.cls-2{fill:#fff}.cls-1,.cls-2,.cls-6{stroke:#2d2d2d;stroke-width:.4px;stroke-miterlimit:10}.cls-2,.cls-6{stroke-linecap:round}.cls-6{fill:#ffabaf}</style> </defs> <g id="Group_88222" data-name="Group 88222" transform="translate(-1439.792 -3498.57)"> <g id="Group_88221" data-name="Group 88221" transform="translate(1440 3498.825)"> <g id="Group_87976" data-name="Group 87976" transform="translate(57.668 14.029)"> <path id="Rectangle_2583" d="M314.12 837.6h46.992a11.453 11.453 0 0 1 11.453 11.453c.634 11.139.992 22.907.971 35.228-.02 11.545-.374 22.59-.971 33.084a11.705 11.705 0 0 1-1.5 5.674 11.461 11.461 0 0 1-1.859 2.438 12.749 12.749 0 0 1-8.112 3.358H314.1a11.414 11.414 0 0 1-8.1-3.354 11.787 11.787 0 0 1-1.982-2.659 12.083 12.083 0 0 1-1.374-5.444c-.168-5.5-.252-8.249-.614-35.98-.057-4.3-.468-20.657.614-32.331a11.473 11.473 0 0 1 11.47-11.47z" class="cls-1" data-name="Rectangle 2583" transform="translate(-301.912 -829.101)"/> <path id="Rectangle_2583-2" d="M309.5 844.9h7.113a1.587 1.587 0 0 1 1.734 1.372c.094 1.336.149 2.747.145 4.224 0 1.385-.055 2.708-.145 3.968a1.187 1.187 0 0 1-.227.679 1.524 1.524 0 0 1-.282.293 2.209 2.209 0 0 1-1.227.4h-7.113a1.985 1.985 0 0 1-1.225-.4 1.48 1.48 0 0 1-.3-.319 1.212 1.212 0 0 1-.207-.652c-.027-.659-.039-.988-.094-4.313a32.385 32.385 0 0 1 .094-3.876 1.587 1.587 0 0 1 1.734-1.376z" class="cls-2" data-name="Rectangle 2583" transform="translate(-295.915 -821.46)"/> <path id="Rectangle_2583-3" d="M326.82 844.9h7.111a1.585 1.585 0 0 1 1.734 1.372c.1 1.336.149 2.747.147 4.224 0 1.385-.057 2.708-.147 3.968a1.186 1.186 0 0 1-.227.679 1.507 1.507 0 0 1-.28.293 2.221 2.221 0 0 1-1.229.4h-7.111a1.981 1.981 0 0 1-1.225-.4 1.43 1.43 0 0 1-.3-.319 1.213 1.213 0 0 1-.209-.652c-.025-.659-.037-.988-.092-4.313a32.268 32.268 0 0 1 .092-3.876 1.588 1.588 0 0 1 1.736-1.374z" class="cls-1" data-name="Rectangle 2583" transform="translate(-277.808 -821.46)"/> <path id="Rectangle_2583-4" d="M309.5 854.1h7.113a1.587 1.587 0 0 1 1.734 1.374c.094 1.334.149 2.745.145 4.221 0 1.385-.055 2.71-.145 3.968a1.187 1.187 0 0 1-.227.679 1.416 1.416 0 0 1-.282.292 2.209 2.209 0 0 1-1.227.4h-7.113a1.972 1.972 0 0 1-1.225-.4 1.507 1.507 0 0 1-.3-.317 1.226 1.226 0 0 1-.207-.655c-.027-.659-.039-.988-.094-4.313a32.4 32.4 0 0 1 .094-3.876 1.587 1.587 0 0 1 1.734-1.373z" class="cls-1" data-name="Rectangle 2583" transform="translate(-295.915 -811.847)"/> <path id="Rectangle_2583-5" d="M326.82 854.1h7.111a1.586 1.586 0 0 1 1.734 1.374c.1 1.334.149 2.745.147 4.221 0 1.385-.057 2.71-.147 3.968a1.186 1.186 0 0 1-.227.679 1.4 1.4 0 0 1-.28.292 2.221 2.221 0 0 1-1.229.4h-7.111a1.968 1.968 0 0 1-1.225-.4 1.455 1.455 0 0 1-.3-.317 1.227 1.227 0 0 1-.209-.655c-.025-.659-.037-.988-.092-4.313a32.279 32.279 0 0 1 .092-3.876 1.588 1.588 0 0 1 1.736-1.374z" class="cls-2" data-name="Rectangle 2583" transform="translate(-277.808 -811.847)"/> <path id="Rectangle_2583-6" d="M309.5 863.9h7.113a1.587 1.587 0 0 1 1.734 1.372c.094 1.336.149 2.747.145 4.223 0 1.385-.055 2.71-.145 3.968a1.187 1.187 0 0 1-.227.679 1.412 1.412 0 0 1-.282.292 2.209 2.209 0 0 1-1.227.4h-7.113a1.984 1.984 0 0 1-1.225-.4 1.466 1.466 0 0 1-.3-.319 1.211 1.211 0 0 1-.207-.652c-.027-.659-.039-.988-.094-4.314a32.385 32.385 0 0 1 .094-3.876 1.587 1.587 0 0 1 1.734-1.373z" class="cls-1" data-name="Rectangle 2583" transform="translate(-295.915 -801.6)"/> <path id="Rectangle_2583-7" d="M318.751 872.925h9.355a2.334 2.334 0 0 1 2.28 2.383c.127 2.317.2 4.763.194 7.326 0 2.4-.076 4.7-.194 6.882a2.522 2.522 0 0 1-.3 1.18 2.373 2.373 0 0 1-.37.507 2.474 2.474 0 0 1-1.614.7h-9.357a2.22 2.22 0 0 1-1.612-.7 2.475 2.475 0 0 1-.395-.552 2.612 2.612 0 0 1-.272-1.133c-.035-1.143-.051-1.716-.123-7.484-.012-.894-.094-4.3.123-6.725a2.334 2.334 0 0 1 2.283-2.385z" class="cls-1" data-name="Rectangle 2583" transform="translate(-286.852 -792.17)"/> <path id="Rectangle_2583-8" d="M326.82 863.9h7.111a1.585 1.585 0 0 1 1.734 1.372c.1 1.336.149 2.747.147 4.223 0 1.385-.057 2.71-.147 3.968a1.186 1.186 0 0 1-.227.679 1.4 1.4 0 0 1-.28.292 2.221 2.221 0 0 1-1.229.4h-7.111a1.98 1.98 0 0 1-1.225-.4 1.417 1.417 0 0 1-.3-.319 1.212 1.212 0 0 1-.209-.652c-.025-.659-.037-.988-.092-4.314a32.268 32.268 0 0 1 .092-3.876 1.588 1.588 0 0 1 1.736-1.374z" class="cls-1" data-name="Rectangle 2583" transform="translate(-277.808 -801.6)"/> <path id="Union_2" fill="#d1ed7a" stroke="#2d2d2d" stroke-width="0.4px" d="M321.876 850.452V848.4a1.875 1.875 0 0 0-1.876-1.879h-2.047a3.053 3.053 0 0 1 0-6.105h2.055a1.875 1.875 0 0 0 1.876-1.875v-2.047a3.053 3.053 0 0 1 6.105 0v2.06a1.877 1.877 0 0 0 1.878 1.876h2.045a3.052 3.052 0 1 1 0 6.1h-2.056a1.866 1.866 0 0 0-1.875 1.855v2.068a3.053 3.053 0 0 1-6.105 0z" data-name="Union 2" transform="translate(-288.335 -833.441)"/> <path id="Path_167026" fill="#c7dcff" stroke="#2d2d2d" stroke-miterlimit="10" stroke-width="0.4px" d="M353.058 894.72a3.633 3.633 0 0 1-4.3 2.67c-4.481-.894-10.567-9.824-14.24-22.964l4.307-2.67c10.129 9.13 15.423 18.553 14.233 22.964z" data-name="Path 167026" transform="translate(-268.644 -799.408)"/> <path id="Path_167027" fill="#c4ea8b" stroke="#2d2d2d" stroke-linecap="round" stroke-miterlimit="10" stroke-width="0.4px" d="M346.323 857.737a23.822 23.822 0 1 0 23.82 23.82 23.822 23.822 0 0 0-23.82-23.82zm0 38a14.182 14.182 0 1 1 14.183-14.183 14.181 14.181 0 0 1-14.183 14.186z" data-name="Path 167027" transform="translate(-289.196 -823.392)"/> </g> <g id="Group_88064" data-name="Group 88064" transform="translate(0 47.201)"> <path id="Path_37221" d="M607.665 495.993c.016-.11.022-.2.022-.215a4.239 4.239 0 0 0-1.656-2.994c-1.753-1.4-3.539-.67-4.269-1.913a2.869 2.869 0 0 1 .065-2.358 4.855 4.855 0 0 1 5.224-3.12 2.7 2.7 0 0 1 1.784 1.149c.579 1.039-.38 1.781-.255 3.439a5.115 5.115 0 0 0 2.96 4.13 5.5 5.5 0 0 0 1.593.354 19.413 19.413 0 0 0 2.652-.177 11.674 11.674 0 0 1 2.212.177c1.785.252 2.2.587 2.709.574a2.266 2.266 0 0 0 .3-.045c.725-.166 1.993-1.819 1.947-3.538-.069-2.483-2.83-3.281-2.477-4.6.332-1.243 3.142-1.856 5.306-1.328a6.24 6.24 0 0 1 4.591 4.648 2.365 2.365 0 0 1-.191 1.976c-.9 1.061-2.989-.349-4.588.763a3.218 3.218 0 0 0-1.211 3.249c.333 1.174 1.418 1.077 3.17 2.986a12.822 12.822 0 0 1 1.768 2.476c1.186 2.2.888 3.339 1.812 3.689a3.576 3.576 0 0 0 2.706-.493l.076-.048c1.2-.757 1.1-1.671 2.166-2.166a3.172 3.172 0 0 1 2.859.233c1.831 1.136 2 4.318.7 6.107a3.338 3.338 0 0 1-2.4 1.469c-1.01-.019-1.246-.835-2.86-1.393-.75-.258-1.947-.67-2.63-.153-.79.6-.01 1.786-.442 3.972-.492 2.478-1.956 3.283-1.451 4.348a2.75 2.75 0 0 0 2.516 1.116c1.432-.07 1.848-1.17 3.217-1.114a2.535 2.535 0 0 1 1.912.892c1.369 2.035-2.778 7.87-4.653 7.39-.651-.166-1.15-1.126-1.337-1.722-.283-.9.091-1.23-.128-1.942a3.126 3.126 0 0 0-3.241-1.95 1.54 1.54 0 0 0-.425.128c-.769.329-.891.945-1.581 1.8a6.957 6.957 0 0 1-1.326 1.239 7.922 7.922 0 0 1-1.5.885 2.168 2.168 0 0 0-.835.5c-.957.932-.889 2.761-.227 4.01.63 1.189 1.443.909 1.947 2.035a3.3 3.3 0 0 1-.354 3.183 4.034 4.034 0 0 1-6.147-.164 3.329 3.329 0 0 1-.354-2.255c.247-1.562 1.259-1.688 1.578-3.1a3.984 3.984 0 0 0-1.313-3.79c-1.189-.916-2.071-.035-4.819-.511-2.809-.487-3.6-1.7-4.783-1.1a3.411 3.411 0 0 0-1.546 2.962c.038.924.568 1.486.27 2.349a2.287 2.287 0 0 1-.972 1.149c-1.7 1.018-5.02-.44-6.1-2.7a2.866 2.866 0 0 1-.27-2.207 2.473 2.473 0 0 1 1.062-1.238c1-.571 1.682.008 2.831-.31a3.262 3.262 0 0 0 2.224-1.963c.4-1.467-1.512-2.052-2.821-5.169-.934-2.226-.725-3.715-1.859-4.39a5.1 5.1 0 0 0-2.542-.656h-.08a3.516 3.516 0 0 0-1.776.707c-.732.537-.576.79-1.238 1.326a3.264 3.264 0 0 1-1.637.771c-1.406.038-2.842-2.24-3.139-4.309-.372-2.588.94-5.566 2.438-5.757a2.014 2.014 0 0 1 1.4.445c.72.574.476 1.246 1.083 1.976a3.639 3.639 0 0 0 2.485 1.02 4.348 4.348 0 0 0 2.99-.45c.918-.6.833-1.332 1.9-3.512a12.092 12.092 0 0 1 1.946-3.271c1.247-1.294 2.793-1.943 3.012-3.501z" class="cls-2" data-name="Path 37221" transform="translate(-590.34 -485.306)"/> <circle id="Ellipse_1" cx="6.115" cy="6.115" r="6.115" class="cls-6" data-name="Ellipse 1" transform="translate(16.987 14.066)"/> <circle id="Ellipse_2" cx="3.479" cy="3.479" r="3.479" class="cls-6" data-name="Ellipse 2" transform="translate(26.835 28.539)"/> </g> <g id="Group_88065" data-name="Group 88065" transform="rotate(-108 41.204 .69)"> <path id="Path_37221-2" d="M11.017 6.8c.01-.07.014-.125.014-.137a2.7 2.7 0 0 0-1.053-1.9c-1.114-.888-2.25-.426-2.714-1.217a1.825 1.825 0 0 1 .041-1.5A3.088 3.088 0 0 1 10.627.055a1.716 1.716 0 0 1 1.135.731c.368.66-.242 1.132-.162 2.187A3.252 3.252 0 0 0 13.481 5.6a3.5 3.5 0 0 0 1.013.225 12.349 12.349 0 0 0 1.686-.113 7.42 7.42 0 0 1 1.407.113c1.135.16 1.4.373 1.723.365a1.453 1.453 0 0 0 .189-.028 2.524 2.524 0 0 0 1.238-2.25c-.044-1.579-1.8-2.086-1.575-2.924.211-.79 2-1.18 3.374-.844A3.968 3.968 0 0 1 25.455 3.1a1.5 1.5 0 0 1-.122 1.256c-.575.675-1.9-.222-2.917.485a2.046 2.046 0 0 0-.77 2.066c.212.747.9.685 2.016 1.9a8.145 8.145 0 0 1 1.124 1.575c.754 1.4.564 2.123 1.152 2.346a2.274 2.274 0 0 0 1.721-.313l.049-.03c.761-.481.7-1.062 1.377-1.377a2.017 2.017 0 0 1 1.818.148c1.164.723 1.275 2.746.444 3.883a2.122 2.122 0 0 1-1.525.934c-.643-.012-.793-.531-1.818-.886-.477-.164-1.238-.426-1.672-.1-.5.383-.006 1.136-.281 2.526-.313 1.576-1.244 2.087-.922 2.765a1.749 1.749 0 0 0 1.6.709c.91-.045 1.175-.744 2.046-.708a1.611 1.611 0 0 1 1.216.567c.87 1.294-1.767 5-2.959 4.7-.414-.106-.731-.717-.85-1.095-.18-.569.058-.782-.081-1.235a1.988 1.988 0 0 0-2.061-1.24.977.977 0 0 0-.27.081c-.489.209-.566.6-1.006 1.145a4.413 4.413 0 0 1-.843.788 5.029 5.029 0 0 1-.957.563 1.378 1.378 0 0 0-.531.317 2.284 2.284 0 0 0-.144 2.55c.4.756.917.578 1.238 1.294a2.1 2.1 0 0 1-.225 2.024 2.343 2.343 0 0 1-2 .851 2.346 2.346 0 0 1-1.912-.956 2.117 2.117 0 0 1-.225-1.434c.157-.993.8-1.073 1-1.97a2.533 2.533 0 0 0-.835-2.41c-.756-.583-1.317-.022-3.064-.325-1.786-.309-2.291-1.083-3.042-.7a2.169 2.169 0 0 0-.983 1.883c.025.588.362.945.172 1.494a1.453 1.453 0 0 1-.613.729c-1.081.647-3.192-.28-3.878-1.718a1.82 1.82 0 0 1-.171-1.4A1.572 1.572 0 0 1 6.423 24c.634-.363 1.069.005 1.8-.2a2.074 2.074 0 0 0 1.414-1.248c.253-.933-.962-1.305-1.794-3.287-.594-1.415-.461-2.362-1.182-2.791a3.246 3.246 0 0 0-1.617-.417h-.051a2.234 2.234 0 0 0-1.129.45c-.466.342-.366.5-.787.843a2.076 2.076 0 0 1-1.041.49c-.894.024-1.807-1.425-2-2.74-.236-1.646.6-3.539 1.551-3.661a1.28 1.28 0 0 1 .891.283c.458.365.3.792.689 1.256a2.314 2.314 0 0 0 1.58.648 2.765 2.765 0 0 0 1.9-.286c.584-.385.53-.847 1.205-2.233a7.689 7.689 0 0 1 1.237-2.08c.805-.827 1.789-1.241 1.928-2.227z" class="cls-2" data-name="Path 37221"/> <circle id="Ellipse_1-2" cx="3.889" cy="3.889" r="3.889" class="cls-6" data-name="Ellipse 1" transform="translate(10.802 8.944)"/> <circle id="Ellipse_2-2" cx="2.212" cy="2.212" r="2.212" class="cls-6" data-name="Ellipse 2" transform="translate(17.064 18.147)"/> </g> </g> </g></svg>