<svg xmlns="http://www.w3.org/2000/svg" viewBox="0 0 194.307 166.508"> <defs> <style>.cls-1{fill:#fff}.cls-1,.cls-2,.cls-5{stroke:#2d2d2d;stroke-miterlimit:10}.cls-2{fill:none;stroke-linecap:round}.cls-5{fill:#c7dcff}</style> </defs> <g id="Group_88426" transform="translate(.495 .5)"> <path id="Path_38801" d="M322.336 106.376a8.767 8.767 0 0 1-4.351 11.606l-.311.134c-4.174.8-7.728-4.9-7.932-5.242-.5-.82-3.31-5.459-1.072-8.6 1.973-2.783 6.364-2.216 6.992-2.144a8.965 8.965 0 0 1 6.674 4.246z" class="cls-1" transform="translate(-283.176 -47.959)"/> <path id="Path_38802" d="M352.937 106.278a8.764 8.764 0 0 0 4.352 11.606l.31.134c4.17.8 7.724-4.906 7.922-5.242.5-.82 3.31-5.459 1.073-8.606-1.977-2.778-6.358-2.216-6.992-2.144a8.951 8.951 0 0 0-6.665 4.252z" class="cls-1" transform="translate(-268.101 -47.994)"/> <path id="Path_38803" d="M410.871 177.5c-2.831 17.45-36.248 25.644-57.89 26.215-25.963.682-60.819-8.938-63.4-26.215-1.4-9.372 7.148-17.991 15.106-26.017a60.609 60.609 0 0 1 85.5-6.033q2.022 1.743 3.873 3.673c7.413 6.893 18.602 17.315 16.811 28.377z" class="cls-1" transform="translate(-289.429 -38.244)"/> <path id="Path_38804" d="M308.1 139.332a30.788 30.788 0 0 0-.62 10.259 31.321 31.321 0 0 0 5.469 14.464" class="cls-2" transform="translate(-283.349 -35.276)"/> <path id="Path_38805" fill="#ffa7ac" stroke="#2d2d2d" stroke-linecap="round" stroke-miterlimit="10" d="M358.7 150.973c.161-1.773.259-3.66.245-5.707a59.526 59.526 0 0 0-.7-8.606" transform="translate(-266.028 -36.185)"/> <path id="Path_38806" fill="#cbe795" stroke="#2d2d2d" stroke-miterlimit="10" d="M319.413 160.207a6.745 6.745 0 1 1-6.744-6.748 6.745 6.745 0 0 1 6.744 6.748z" transform="translate(-283.82 -30.472)"/> <ellipse id="Ellipse_2854" cx="28.595" cy="40.02" class="cls-1" rx="28.595" ry="40.02" transform="translate(33.167 18.222)"/> <path id="Path_38808" d="M371.218 183.158c3.456 1.564 5.818 1.733 7.223.687 6.044-4.516-1.454-34.841-14.261-36.4-12.407-1.516-27.164 24.408-22.156 31.578a8.152 8.152 0 0 0 6.952 2.486" class="cls-2" transform="translate(-271.885 -32.539)"/> <circle id="Ellipse_2855" cx="4.249" cy="4.249" r="4.249" class="cls-5" transform="translate(74.49 145.192)"/> <circle id="Ellipse_2856" cx="4.249" cy="4.249" r="4.249" class="cls-5" transform="translate(93.225 146.268)"/> <path id="Path_38809" fill="#474747" stroke="#2d2d2d" stroke-miterlimit="10" d="M314.343 112.6a93.967 93.967 0 0 0 20.61-7.534c12.74-6.46 19.356-13.6 25.254-10.932 1.932.864 3.075 2.726 5.379 6.452a50.247 50.247 0 0 1 6.391 15.953c5.29-14.991 1.089-30.852-9.619-38.9a31.907 31.907 0 0 0-25.091-5.38 38.36 38.36 0 0 0-12.186 5.38 26.5 26.5 0 0 0-7.53 6.452 24.492 24.492 0 0 0-4.287 9.372 33.685 33.685 0 0 0 1.079 19.137z" transform="translate(-281.631 -58.305)"/> <path id="Path_38810" d="M452.47 71.1a9.418 9.418 0 0 0-2.078-6 6.6 6.6 0 0 0-5-2.49c-9.4-.58-19.25-.922-29.509-.938q-16.338 0-31.249.938a6.516 6.516 0 0 0-5 2.49 10.544 10.544 0 0 0-2.078 6c-.523 5.863-.887 12.354-.887 19.388-.023 7.578.336 14.544.887 20.783a9.461 9.461 0 0 0 2.073 5.991 7.034 7.034 0 0 0 2.8 2.167c1.877.744 2.846-.04 3.209.509 1.135 1.723-7.495 10.746-6.476 12.5.155.268.882.97 9.178-3.431 7.977-4.241 9.581-6.111 13.577-7.578a37.832 37.832 0 0 1 13.183-.851s20.169.023 30.285-.824a7.293 7.293 0 0 0 4.994-2.49 8.321 8.321 0 0 0 1.005-1.52 10.157 10.157 0 0 0 1.073-4.476c.34-5.628.559-11.606.6-17.88.059-7.913-.173-15.366-.587-22.288z" class="cls-1" transform="translate(-259.761 -61.681)"/> <path id="Path_180612" fill="#ffabaf" stroke="#2d2d2d" stroke-miterlimit="10" d="M424.7 84.207h-7.334a2.774 2.774 0 0 1-2.773-2.774V74.1a4.692 4.692 0 0 0-3.665-4.69 4.51 4.51 0 0 0-5.256 3.613 4.434 4.434 0 0 0-.075.809v7.6a2.775 2.775 0 0 1-2.774 2.774h-7.33a4.691 4.691 0 0 0-4.69 3.66 4.5 4.5 0 0 0 4.422 5.331h7.6a2.776 2.776 0 0 1 2.774 2.774v7.334A4.688 4.688 0 0 0 409.27 108a4.506 4.506 0 0 0 5.254-3.609 4.59 4.59 0 0 0 .076-.813v-7.6a2.775 2.775 0 0 1 2.774-2.774h7.6a4.508 4.508 0 0 0 4.5-4.52 4.576 4.576 0 0 0-.075-.811 4.692 4.692 0 0 0-4.699-3.666z" transform="translate(-254.983 -59.079)"/> </g></svg>