<svg xmlns="http://www.w3.org/2000/svg" viewBox="0 0 116.594 171.632"> <defs> <style>.cls-1,.cls-2{fill:#fff;stroke:#2d2d2d;stroke-linecap:round;stroke-miterlimit:10}.cls-2{fill:none}</style> </defs> <g id="Group_88425" transform="translate(.452 .475)"> <path id="Path_180603" d="M105.854 231.061c7.847 8.054 18.282 2.044 48.939 1.976 35.869-.079 52.212 8.084 60.2-1.976 3-3.788 2.971-8.779 2.778-18.6-.683-34.747-1.658-38.955-1.235-54.333.477-17.387-.286-34.815.823-52.172.13-2.028.685-9.789-3.4-12.348-1.652-1.038-3.963-1.156-7.513-1.339-3.647-.187-4.474.323-7.2-.206-2.405-.466-4.929-.955-6.071-2.881-.967-1.633-.44-3.611.617-7.564a58.642 58.642 0 0 1 2.058-5.916c2.051-5.369 2.311-5.358 2.214-5.859-.786-4.106-17.506-3.6-40.287-4.323-5.975-.19-13.759-.126-29.327 0-9.826.08-20.028.3-24.608 7.012a7.689 7.689 0 0 0-.657 1.085c-1.09 2.286-1.132 6.231-.777 22.753.4 18.578.6 28.184.572 28.185v-.039c-.057 0 .942 32.574-.05 68.192-.775 27.754-2.078 33.214 2.924 38.353z" class="cls-1" transform="translate(-102.181 -65.395)"/> <path id="Path_180605" d="M188.526 98.08a52.045 52.045 0 0 0-9.718-20.68 51.31 51.31 0 0 0-10.033-9.718" class="cls-2" transform="translate(-73.608 -64.416)"/> <path id="Path_180606" d="M193.483 115.975q-17.459.45-35.758.429-15.895-.028-31.162-.429" class="cls-1" transform="translate(-91.719 -43.694)"/> <path id="Path_180607" d="M113.456 115.944c.12.2.677 1.108 1.22 1.017.3-.05.449-.384.9-1.272.384-.747.715-1.348.926-1.739" class="cls-1" transform="translate(-97.343 -44.563)"/> <rect id="Rectangle_6770" width="7.523" height="7.523" class="cls-2" rx="1.218" transform="translate(13.895 67.104)"/> <path id="Path_180608" d="M193.483 126.765q-17.459.452-35.758.429-15.895-.028-31.162-.429" class="cls-1" transform="translate(-91.719 -39.064)"/> <path id="Path_180609" d="M113.456 126.734c.12.2.677 1.108 1.22 1.017.3-.05.449-.384.9-1.272.384-.747.715-1.348.926-1.739" class="cls-1" transform="translate(-97.343 -39.933)"/> <rect id="Rectangle_6771" width="7.523" height="7.523" class="cls-2" rx="1.218" transform="translate(13.895 82.523)"/> <path id="Path_180610" fill="#cbe795" stroke="#2d2d2d" stroke-linecap="round" stroke-miterlimit="10" d="M162.791 175.925c-5.2 0-10.464-.233-15.644-.693a5.638 5.638 0 0 1-5.513-5.63v-5.888a2.345 2.345 0 1 1 4.69-.014v5.9a.94.94 0 0 0 .94.94l.209.009c5.206.466 10.484.666 15.72.683 4.959-.013 9.971-.241 14.9-.683l.209-.009a1.015 1.015 0 0 0 .665-.276.937.937 0 0 0 .276-.663v-5.888a2.345 2.345 0 0 1 4.69 0v5.887a5.6 5.6 0 0 1-1.648 3.98 5.693 5.693 0 0 1-3.858 1.649c-5.03.447-10.146.68-15.214.695z" transform="translate(-85.253 -24.221)"/> <path id="Path_180611" fill="#c7dcff" stroke="#2d2d2d" stroke-linecap="round" stroke-miterlimit="10" d="M180.7 151.513c-2.168-2.745-4.473-5.443-6.851-8.024-2.348-2.545-4.813-5.026-7.331-7.374a6.085 6.085 0 0 0-4.4-1.883h-.064a6.208 6.208 0 0 0-4.409 1.966c-2.535 2.419-4.992 4.98-7.3 7.613-2.185 2.491-4.287 5.1-6.255 7.764a2.345 2.345 0 0 0 3.773 2.787c1.889-2.557 3.91-5.065 6-7.457 1.938-2.209 3.988-4.359 6.1-6.418.373 4.925.572 9.891.572 14.806 0 5.806-.277 11.685-.812 17.473a2.345 2.345 0 0 0 2.119 2.551 1.6 1.6 0 0 0 .219.01 2.346 2.346 0 0 0 2.339-2.127c.546-5.931.826-11.953.832-17.9 0-4.783-.174-9.612-.522-14.406 1.946 1.868 3.858 3.793 5.695 5.778 2.3 2.492 4.523 5.1 6.617 7.753a2.347 2.347 0 1 0 3.683-2.91z" transform="translate(-84.394 -35.861)"/> <path id="Path_180619" fill="#474747" d="M137.953 114.16c-1.738-2.511-3.581-4.953-5.488-7.34 1.712-1.865 3.353-3.806 4.879-5.818a2.144 2.144 0 1 0-3.417-2.591c-1.328 1.751-2.745 3.443-4.223 5.076-1.663-1.946-3.361-3.86-5.125-5.693-1.046-1.089-2.119-2.169-3.208-3.225h2.561a5.519 5.519 0 0 0 3.93-1.628 5.622 5.622 0 0 0 1.623-3.724 18.5 18.5 0 0 0 0-6 5.527 5.527 0 0 0-1.625-3.733 5.606 5.606 0 0 0-3.741-1.622 22.977 22.977 0 0 0-3.64-.257 23.376 23.376 0 0 0-3.275.256 5.5 5.5 0 0 0-3.746 1.623 5.613 5.613 0 0 0-1.629 3.826c-.3 3.435-.453 6.917-.466 10.351-.013 3.794.146 7.62.473 11.371a2.143 2.143 0 1 0 4.27-.37c-.314-3.624-.469-7.32-.456-10.985.013-3.341.166-6.731.456-10.075l.009-.186a1.33 1.33 0 0 1 .374-.9 1.252 1.252 0 0 1 .9-.372l.329-.026a19.4 19.4 0 0 1 2.8-.227 22.217 22.217 0 0 1 3.091.227l.33.026a1.358 1.358 0 0 1 .9.373 1.263 1.263 0 0 1 .37.9l.033.366a14.233 14.233 0 0 1 0 4.86l-.033.369a1.326 1.326 0 0 1-.37.9 1.265 1.265 0 0 1-.9.373h-4.1a3.674 3.674 0 0 0-2.791 6.065l.154.164c1.456 1.376 2.9 2.808 4.29 4.253 1.8 1.879 3.541 3.841 5.239 5.842-.079.077-.154.159-.233.236a76.685 76.685 0 0 1-7.235 6.238 2.144 2.144 0 0 0 2.589 3.417 80.51 80.51 0 0 0 7.611-6.561c1.721 2.172 3.391 4.386 4.967 6.664a2.143 2.143 0 1 0 3.524-2.439z" transform="translate(-98.241 -60.157)"/> </g></svg>